#!OML:ASF I:\Actors\actors\Patient Classification 2\Patient 1\Session 1\actor1.ASF
:FULLY-SPECIFIED
:DEGREES
944
root 0.725085 18.7247 7.14838 -1.89743 -3.31266 -11.2564
lowerback 7.3798 2.15639 3.53399
upperback -0.936493 3.27336 1.47069
thorax -5.00377 1.54043 -0.829178
lowerneck -0.643778 -4.35506 -6.87462
upperneck 12.5675 -7.18038 13.5173
head 4.55649 -3.22535 5.01795
rclavicle 6.74004e-015 2.3059e-014
rhumerus -63.6107 -16.9609 -71.3097
rradius 42.0528
rwrist -5.29961
rhand -27.4555 -46.8959
rfingers 7.12502
rthumb -0.860016 -76.874
lclavicle 6.74004e-015 2.3059e-014
lhumerus -49.3981 4.13005 89.6617
lradius 45.0711
lwrist 11.1453
lhand -24.9387 -19.8224
lfingers 7.12502
lthumb 1.57074 10.1515
rfemur 0 0 0
rtibia 0
rfoot 0 0
rtoes 0
lfemur 2.02689 -3.27553 -9.04277
ltibia 24.4694
lfoot -28.6702 13.2926
ltoes -51.0423
945
root 0.778705 18.7294 7.13242 -1.96708 -3.60604 -11.4345
lowerback 7.36797 2.14554 3.30575
upperback -0.908111 3.23714 1.48055
thorax -4.98142 1.52982 -0.686702
lowerneck -0.700735 -4.27237 -6.98537
upperneck 12.6539 -7.11574 13.8714
head 4.59974 -3.17839 5.15359
rclavicle 4.92613e-015 -3.33958e-014
rhumerus -63.5247 -16.8695 -71.496
rradius 42.0221
rwrist -5.29279
rhand -27.5919 -46.8872
rfingers 7.12502
rthumb -0.991725 -76.8647
lclavicle 4.92613e-015 -3.33958e-014
lhumerus -49.2601 4.5327 89.5918
lradius 45.1019
lwrist 11.2842
lhand -25.4397 -19.6352
lfingers 7.12502
lthumb 1.08686 10.3418
rfemur 0 0 0
rtibia 0
rfoot 0 0
rtoes 0
lfemur 2.21899 -3.35162 -9.08325
ltibia 24.3467
lfoot -28.8818 13.4915
ltoes -50.9516
946
root 0.82626 18.7328 7.11764 -2.00445 -3.82384 -11.6282
lowerback 7.29948 2.11404 3.15241
upperback -0.904455 3.17799 1.47832
thorax -4.94869 1.50554 -0.594039
lowerneck -0.105667 -3.8886 -7.06808
upperneck 11.9945 -6.61173 14.5311
head 4.26281 -2.94796 5.41591
rclavicle -1.61513e-016 6.36111e-015
rhumerus -63.5051 -16.8737 -71.6666
rradius 41.9882
rwrist -5.24769
rhand -27.5124 -46.9864
rfingers 7.12502
rthumb -0.914998 -76.9642
lclavicle -1.61513e-016 6.36111e-015
lhumerus -49.1979 4.87723 89.4984
lradius 45.2242
lwrist 11.5125
lhand -25.7006 -19.6357
lfingers 7.12502
lthumb 0.834886 10.3424
rfemur 0 0 0
rtibia 0
rfoot 0 0
rtoes 0
lfemur 2.35445 -3.31003 -9.02982
ltibia 24.2332
lfoot -29.0238 13.4996
ltoes -50.8206
947
root 0.868812 18.735 7.10341 -2.02732 -3.98493 -11.862
lowerback 7.21205 2.09325 3.10988
upperback -0.902062 3.14272 1.48229
thorax -4.90022 1.49029 -0.558596
lowerneck -0.967846 -4.18789 -7.04989
upperneck 12.8981 -7.08699 14.4042
head 4.73491 -3.12579 5.33445
rclavicle -2.68111e-014 1.59028e-014
rhumerus -63.5483 -16.9362 -71.7939
rradius 41.9927
rwrist -5.31694
rhand -27.3297 -46.8437
rfingers 7.12502
rthumb -0.738519 -76.8222
lclavicle -2.68111e-014 1.59028e-014
lhumerus -49.1784 4.99153 89.498
lradius 45.3737
lwrist 11.7613
lhand -25.4947 -19.8889
lfingers 7.12502
lthumb 1.03381 10.0883
rfemur 0 0 0
rtibia 0
rfoot 0 0
rtoes 0
lfemur 2.43079 -3.14037 -8.87793
ltibia 24.1353
lfoot -28.9517 13.5433
ltoes -51.1145
948
root 0.907875 18.7373 7.09094 -2.04755 -4.13019 -12.0145
lowerback 7.09513 2.10285 3.06104
upperback -0.892346 3.14482 1.46331
thorax -4.8253 1.49385 -0.546082
lowerneck -0.277921 -3.86021 -7.12884
upperneck 12.1333 -6.64702 15.0599
head 4.3548 -2.93491 5.59293
rclavicle 1.55425e-014 2.70347e-014
rhumerus -63.6307 -17.0416 -71.9218
rradius 42.0089
rwrist -5.51976
rhand -27.2123 -46.6404
rfingers 7.12502
rthumb -0.62518 -76.6192
lclavicle 1.55425e-014 2.70347e-014
lhumerus -49.1488 4.8126 89.6546
lradius 45.5014
lwrist 12.0943
lhand -25.2297 -19.9417
lfingers 7.12502
lthumb 1.2897 10.0341
rfemur 0 0 0
rtibia 0
rfoot 0 0
rtoes 0
lfemur 2.46537 -2.85686 -8.79269
ltibia 24.0633
lfoot -28.7018 13.6896
ltoes -51.869
